<?xml version="1.0" encoding="utf-8"?>
<!-- Generator: Adobe Illustrator 18.1.0, SVG Export Plug-In . SVG Version: 6.00 Build 0)  -->
<!DOCTYPE svg PUBLIC "-//W3C//DTD SVG 1.1//EN" "http://www.w3.org/Graphics/SVG/1.1/DTD/svg11.dtd">
<svg version="1.1" id="Layer_1" xmlns="http://www.w3.org/2000/svg" xmlns:xlink="http://www.w3.org/1999/xlink" x="0px" y="0px"
	 width="100px" height="100px" viewBox="0 0 100 100" enable-background="new 0 0 100 100" xml:space="preserve">
<path fill="#180206" stroke="#231F20" stroke-width="0.1832" stroke-miterlimit="10" d="M16.3,54.3c1.1,0,2-0.9,2-2.1V27.6
	c0-1.1-0.9-2-2-2s-2.1,0.9-2.1,2v24.7C14.3,53.4,15.2,54.3,16.3,54.3L16.3,54.3z M12.1,75.9L12.1,75.9c1.2,1.2,3,2,4.8,2
	s3.6-0.7,4.8-2l0.1-0.1v0c1.3-1.3,2-3,2-4.9c0-1.9-0.8-3.7-2-4.9v0v0c-1.3-1.2-3-2-4.9-2c-1.9,0-3.6,0.8-4.8,2v0c-1.3,1.3-2,3-2,4.9
	c0,1.8,0.7,3.5,1.9,4.8L12.1,75.9L12.1,75.9z M14.9,69L14.9,69c0.5-0.5,1.2-0.8,2-0.8c0.8,0,1.5,0.3,2,0.8v0c0.5,0.5,0.8,1.2,0.8,2
	c0,0.8-0.3,1.5-0.8,2v0c-0.5,0.5-1.2,0.8-2,0.8c-0.8,0-1.5-0.3-2-0.8l-0.1-0.1c-0.5-0.5-0.7-1.2-0.7-1.9
	C14.1,70.2,14.4,69.5,14.9,69L14.9,69z M72.6,68L72.6,68c0,1.9,0.8,3.6,2,4.9c1.3,1.2,3,2,4.9,2c1.9,0,3.7-0.8,4.9-2
	c1.2-1.3,2-3,2-4.9c0-1.8-0.7-3.5-1.9-4.8l-0.1-0.1c-1.3-1.2-3-2-4.9-2c-1.9,0-3.6,0.8-4.9,2C73.4,64.4,72.6,66.1,72.6,68L72.6,68z
	 M77.6,66L77.6,66c0.5-0.5,1.2-0.8,2-0.8c0.8,0,1.5,0.3,2,0.8l0.1,0.1c0.5,0.5,0.7,1.2,0.7,1.9c0,0.8-0.3,1.5-0.8,2
	c-0.5,0.5-1.2,0.8-2,0.8c-0.8,0-1.5-0.3-2-0.8c-0.5-0.5-0.8-1.2-0.8-2C76.7,67.2,77,66.5,77.6,66L77.6,66z M80.9,11.3L80.9,11.3
	c-0.5-1.8-2.4-2.9-4.2-2.4l-20.2,5.4c-0.6-0.9-1.7-1.6-2.8-1.6H3.9c-1.9,0-3.4,1.5-3.4,3.4v71.5c0,1.9,1.5,3.4,3.4,3.4h49.7
	c1.9,0,3.4-1.5,3.4-3.4V44.6l11.8,44c0.5,1.8,2.4,2.9,4.2,2.4l24-6.4c1.8-0.5,2.9-2.4,2.4-4.2L80.9,11.3L80.9,11.3z M26.7,84.3
	L26.7,84.3H7.4V19.6h19.4V84.3L26.7,84.3z M50.2,84.3L50.2,84.3H30.8V19.6h19.3V84.3L50.2,84.3z M74.5,83.6L74.5,83.6L57.8,21.1
	l17.4-4.7l16.8,62.5L74.5,83.6L74.5,83.6z M41.2,77.9L41.2,77.9c1.9,0,3.7-0.8,4.9-2c1.2-1.3,2-3,2-4.9c0-1.9-0.7-3.5-1.9-4.8
	l-0.1-0.1c-1.3-1.2-3-2-4.9-2c-1.9,0-3.6,0.8-4.9,2c-1.3,1.3-2,3-2,4.9c0,1.9,0.8,3.6,2,4.9C37.5,77.1,39.3,77.9,41.2,77.9
	L41.2,77.9z M39.2,69L39.2,69c0.5-0.5,1.2-0.8,2-0.8c0.8,0,1.5,0.3,2,0.8l0.1,0.1c0.5,0.5,0.7,1.2,0.7,1.9c0,0.8-0.3,1.5-0.8,2
	c-0.5,0.5-1.2,0.8-2,0.8c-0.8,0-1.5-0.3-2-0.8c-0.5-0.5-0.8-1.2-0.8-2C38.3,70.2,38.7,69.5,39.2,69L39.2,69z M41.2,54.3L41.2,54.3
	c1.2,0,2.1-0.9,2.1-2.1V27.6c0-1.1-0.9-2-2.1-2c-1.1,0-2,0.9-2,2v24.7C39.1,53.4,40,54.3,41.2,54.3L41.2,54.3z M68,24.4L68,24.4
	c-1.1,0.3-1.7,1.4-1.4,2.5l6.4,23.9c0.3,1.1,1.4,1.7,2.5,1.5c1.1-0.3,1.8-1.4,1.5-2.5l-6.4-23.9C70.2,24.8,69.1,24.1,68,24.4
	L68,24.4z"/>
<g>
</g>
<g>
</g>
<g>
</g>
<g>
</g>
<g>
</g>
<g>
</g>
</svg>
