<?xml version="1.0" encoding="utf-8"?>
<!-- Generator: Adobe Illustrator 18.1.0, SVG Export Plug-In . SVG Version: 6.00 Build 0)  -->
<!DOCTYPE svg PUBLIC "-//W3C//DTD SVG 1.1//EN" "http://www.w3.org/Graphics/SVG/1.1/DTD/svg11.dtd">
<svg version="1.1" id="Layer_1" xmlns="http://www.w3.org/2000/svg" xmlns:xlink="http://www.w3.org/1999/xlink" x="0px" y="0px"
	 width="100px" height="100px" viewBox="0 0 100 100" enable-background="new 0 0 100 100" xml:space="preserve">
<g id="study_1_">
	<path fill="#180206" d="M99.5,25.2c0-4.4-3-8.1-7.2-9L52,6.9c-0.7-0.2-1.4-0.2-2-0.2c-0.7,0-1.4,0.1-2.1,0.2L7.7,16.2
		c-4.2,1-7.2,4.7-7.2,9c0,4.4,3,8.1,7.2,9l8.3,1.9v26.2c0,8.2,9.4,15.5,34,15.5c24.6,0,34-7.3,34-15.5V36.2l8.3-1.9
		C96.5,33.3,99.5,29.6,99.5,25.2z M77.8,62.4c0,3.4-9.3,9.3-27.8,9.3s-27.8-5.9-27.8-9.3V37.6l25.8,6c0.7,0.2,1.4,0.2,2,0.2
		c0.7,0,1.4-0.1,2.1-0.2l25.8-5.9V62.4z M50.7,37.5c-0.2,0.1-0.5,0.1-0.7,0.1c-0.2,0-0.5,0-0.7-0.1L9.1,28.3c-1.4-0.3-2.4-1.6-2.4-3
		s1-2.7,2.4-3L49.3,13c0.2-0.1,0.5-0.1,0.7-0.1c0.2,0,0.5,0,0.7,0.1l40.2,9.3c1.4,0.3,2.4,1.6,2.4,3s-1,2.7-2.4,3L50.7,37.5z"/>
	<path fill="#180206" d="M90.2,40.7v27.8c0,1.7,1.4,3.1,3.1,3.1c1.7,0,3.1-1.4,3.1-3.1V40.7c0-1.7-1.4-3.1-3.1-3.1
		C91.6,37.6,90.2,39,90.2,40.7z"/>
	<path fill="#180206" d="M93.3,74.8c-3.4,0-6.2,9-6.2,12.4s2.8,6.2,6.2,6.2c3.4,0,6.2-2.8,6.2-6.2S96.7,74.8,93.3,74.8z"/>
</g>
<g>
</g>
<g>
</g>
<g>
</g>
<g>
</g>
<g>
</g>
<g>
</g>
</svg>
