<?xml version="1.0" encoding="utf-8"?>
<!-- Generator: Adobe Illustrator 18.1.0, SVG Export Plug-In . SVG Version: 6.00 Build 0)  -->
<!DOCTYPE svg PUBLIC "-//W3C//DTD SVG 1.1//EN" "http://www.w3.org/Graphics/SVG/1.1/DTD/svg11.dtd">
<svg version="1.1" id="Layer_1" xmlns="http://www.w3.org/2000/svg" xmlns:xlink="http://www.w3.org/1999/xlink" x="0px" y="0px"
	 width="100px" height="100px" viewBox="0 0 100 100" enable-background="new 0 0 100 100" xml:space="preserve">
<path fill="#231F20" stroke="#231F20" stroke-width="0.2042" stroke-miterlimit="10" d="M39.5,2.6h21.1c3,0,5.8,1.3,7.8,3.3
	c2,2,3.3,4.8,3.3,7.8v3.4h8.3c5.4,0,10.3,2.2,13.8,5.7c3.6,3.6,5.7,8.5,5.7,13.8v41.2c0,5.4-2.2,10.3-5.7,13.8
	c-3.5,3.6-8.4,5.8-13.8,5.8H20.1c-5.4,0-10.3-2.2-13.8-5.8L6,91.5c-3.4-3.5-5.5-8.3-5.5-13.6V36.6c0-5.4,2.2-10.3,5.7-13.8l0,0h0
	c3.5-3.5,8.4-5.7,13.8-5.7h8.3v-3.4c0-3,1.3-5.8,3.3-7.8C33.7,3.8,36.4,2.6,39.5,2.6L39.5,2.6z M69.8,24.7L69.8,24.7
	c-0.1,0-0.3,0-0.4,0h-0.1H30.7c-0.1,0-0.3,0-0.4,0H20.1c-3.3,0-6.3,1.4-8.4,3.5l0,0c-2.2,2.2-3.5,5.2-3.5,8.5V55H19v-6.8
	c0-1.3,1-2.3,2.3-2.3h0.1h16.3c1.3,0,2.3,1,2.3,2.3v0V55h20.3v-6.8c0-1.3,1-2.3,2.3-2.3h0.1h16.2c1.3,0,2.3,1,2.3,2.3v0V55h10.9
	V36.6c0-3.3-1.4-6.3-3.5-8.4c-2.2-2.2-5.2-3.5-8.4-3.5H69.8L69.8,24.7z M33,17.1L33,17.1H67v-3.4c0-1.8-0.7-3.4-1.9-4.6
	c-1.2-1.2-2.8-1.9-4.6-1.9H39.5c-1.8,0-3.4,0.7-4.6,1.9c-1.2,1.2-1.9,2.8-1.9,4.6V17.1L33,17.1z M8.1,59.5L8.1,59.5v18.3
	c0,3.2,1.3,6.1,3.3,8.3l0.2,0.2c2.2,2.2,5.2,3.5,8.4,3.5h59.8c3.3,0,6.3-1.4,8.4-3.5c2.2-2.2,3.5-5.2,3.5-8.5V59.5H81v6.8
	c0,1.3-1,2.3-2.3,2.3h-0.1H62.4c-1.3,0-2.3-1-2.3-2.3v-0.1v-6.7H39.9v6.8c0,1.3-1,2.3-2.3,2.3h0H21.3c-1.3,0-2.3-1-2.3-2.3v-0.1
	v-6.7H8.1L8.1,59.5z M35.3,50.5L35.3,50.5H23.6v6.7v0.1v0.1V64h11.8v-6.7v-0.1v-0.1V50.5L35.3,50.5z M76.5,50.5L76.5,50.5H64.7v6.7
	v0.1v0.1V64h11.8v-6.7v-0.1v-0.1V50.5L76.5,50.5z"/>
<g>
</g>
<g>
</g>
<g>
</g>
<g>
</g>
<g>
</g>
<g>
</g>
</svg>
