<?xml version="1.0" encoding="utf-8"?>
<!-- Generator: Adobe Illustrator 18.1.0, SVG Export Plug-In . SVG Version: 6.00 Build 0)  -->
<!DOCTYPE svg PUBLIC "-//W3C//DTD SVG 1.1//EN" "http://www.w3.org/Graphics/SVG/1.1/DTD/svg11.dtd">
<svg version="1.1" id="Layer_1" xmlns="http://www.w3.org/2000/svg" xmlns:xlink="http://www.w3.org/1999/xlink" x="0px" y="0px"
	 width="100px" height="100px" viewBox="0 0 100 100" enable-background="new 0 0 100 100" xml:space="preserve">
<path fill="#180206" stroke="#231F20" stroke-width="0.2042" stroke-miterlimit="10" d="M95.7,9.8H4.3c-2.1,0-3.8,1.7-3.8,3.8v51.1
	c0,2.1,1.7,3.8,3.8,3.8h2.2c0.2,0,0.4,0,0.6,0c0.4,1.3,1,2.6,1.8,3.8c0.6,0.9,1.3,1.7,2.1,2.5c-0.9,0.2-1.8,0.6-2.6,1
	c-1.7,0.9-3.2,2.3-4.3,3.9c-0.6,1-1.2,2.1-1.5,3.2l0,0.2C2.2,84.1,2,85.3,2,86.4v1.5c0,1.3,1,2.3,2.3,2.3h91.4c1.3,0,2.3-1,2.3-2.3
	v-1.5c0-1-0.1-2-0.4-2.9c-0.2-0.9-0.6-1.9-1.1-2.8c-0.5-0.9-1-1.7-1.7-2.4c-0.6-0.7-1.4-1.4-2.3-1.9l-0.1-0.1c-1-0.6-2-1.1-3.1-1.4
	L89,74.7c0.8-0.7,1.5-1.6,2.1-2.5c0.8-1.2,1.4-2.4,1.8-3.7h2.8c2.1,0,3.8-1.7,3.8-3.8V13.6C99.5,11.5,97.8,9.8,95.7,9.8L95.7,9.8z
	 M90,80.1L90,80.1L90,80.1c0.6,0.4,1.1,0.8,1.5,1.2v0c0.4,0.5,0.8,1,1.1,1.5c0.3,0.5,0.5,1.1,0.7,1.7h0c0.1,0.4,0.1,0.7,0.2,1.1H6.6
	c0.1-0.4,0.1-0.9,0.2-1.3l0.1-0.2c0.2-0.7,0.5-1.4,0.9-2c0.7-1,1.6-1.9,2.7-2.4c1.1-0.6,2.3-0.9,3.5-0.9h14c0.7,0,1.5,0.1,2.2,0.3h0
	c0.7,0.2,1.4,0.5,2,0.9c0.3,0.2,0.5,0.4,0.8,0.6c0.2,0.2,0.4,0.4,0.6,0.6c0.1,0.1,0.2,0.3,0.4,0.4c1,0.8,2.4,0.7,3.2-0.3
	c0.7-0.8,1.6-1.5,2.6-1.9c1-0.4,2-0.7,3.1-0.7h14c0.7,0,1.5,0.1,2.2,0.3c0.7,0.2,1.4,0.5,2,0.9c0.3,0.2,0.5,0.4,0.8,0.6
	c0.2,0.2,0.4,0.4,0.6,0.6c0.1,0.1,0.2,0.3,0.4,0.4c1,0.8,2.4,0.7,3.2-0.3c0.7-0.8,1.6-1.5,2.6-1.9c1-0.4,2-0.7,3.1-0.7h14
	c0.7,0,1.5,0.1,2.2,0.3h0C88.8,79.4,89.4,79.7,90,80.1L90,80.1z M11,64.2L11,64.2c0-0.7,0.1-1.3,0.2-2c0.1-0.7,0.3-1.3,0.6-1.9
	c1.5-3.7,5.3-6.2,9.3-6.2c5.5,0,10.1,4.5,10.1,10.1c0,2-0.6,4-1.7,5.6c-1.1,1.6-2.6,2.9-4.5,3.7c-1.2,0.5-2.6,0.8-3.9,0.8
	c-1.4,0-2.7-0.3-3.9-0.8c-1.9-0.8-3.4-2.1-4.5-3.7C11.6,68.1,11,66.2,11,64.2L11,64.2z M31.2,74.7L31.2,74.7
	c0.8-0.7,1.5-1.6,2.1-2.5c1.1-1.7,1.9-3.7,2.3-5.8c0.3,2.1,1.1,4,2.3,5.8c0.6,0.9,1.3,1.7,2.1,2.5c-0.7,0.2-1.3,0.4-1.9,0.7
	c-0.9,0.4-1.6,0.9-2.4,1.5c-0.2-0.2-0.5-0.4-0.8-0.5c-1-0.7-2.1-1.2-3.2-1.5L31.2,74.7L31.2,74.7z M39.9,64.2L39.9,64.2
	c0-0.7,0.1-1.3,0.2-2c0.1-0.7,0.3-1.3,0.6-1.9c1.5-3.7,5.3-6.2,9.3-6.2c5.5,0,10.1,4.6,10.1,10.1c0,2-0.6,4-1.7,5.6
	c-1,1.6-2.5,2.9-4.3,3.7l-0.1,0.1c-1.2,0.5-2.6,0.8-3.9,0.8c-1.3,0-2.7-0.3-3.9-0.8c-1.8-0.8-3.4-2.1-4.5-3.7
	C40.5,68.1,39.9,66.2,39.9,64.2L39.9,64.2z M60.1,74.7L60.1,74.7c0.8-0.7,1.5-1.6,2.1-2.5c1.2-1.7,1.9-3.7,2.3-5.8
	c0.3,2.1,1.1,4,2.3,5.8c0.6,0.9,1.3,1.7,2.1,2.5c-0.7,0.2-1.3,0.4-1.9,0.7c-0.8,0.4-1.6,0.9-2.4,1.5c-0.2-0.2-0.5-0.4-0.8-0.5
	c-1-0.7-2.1-1.2-3.2-1.5L60.1,74.7L60.1,74.7z M68.8,64.2L68.8,64.2c0-0.6,0.1-1.3,0.2-1.9l0-0.1c0.9-4.7,5.1-8.1,9.9-8.1
	c5.5,0,10.1,4.6,10.1,10.1c0,2-0.6,4-1.7,5.6c-1.1,1.6-2.5,2.9-4.3,3.7l-0.1,0.1c-1.3,0.5-2.6,0.8-3.9,0.8c-1.3,0-2.7-0.3-3.9-0.8h0
	c-1.8-0.8-3.4-2.1-4.4-3.7C69.5,68.1,68.8,66.2,68.8,64.2L68.8,64.2z M91.9,57.4L91.9,57.4c-0.7-1.3-1.6-2.6-2.7-3.6
	c-2.6-2.6-6.3-4.3-10.3-4.3c-5.9,0-11.3,3.6-13.5,9c-0.4,0.9-0.6,1.8-0.8,2.7l0,0l-0.1,0.5c-1.1-7-7.3-12.3-14.5-12.3
	c-5.9,0-11.3,3.6-13.5,9c-0.4,0.9-0.7,1.8-0.8,2.7l-0.1,0.5c-1.1-7-7.3-12.3-14.4-12.3c-5.4,0-10.5,3.1-13,7.9v-40h83.8V57.4
	L91.9,57.4z"/>
<g>
</g>
<g>
</g>
<g>
</g>
<g>
</g>
<g>
</g>
<g>
</g>
</svg>
